<svg width="76" height="77" viewBox="0 0 76 77" fill="none" xmlns="http://www.w3.org/2000/svg">
<path d="M59.5909 0.414795C54.8416 0.414795 50.9545 4.31708 50.9545 9.08492C50.9545 11.3472 51.8215 13.4162 53.2486 14.9644L44.1534 27.1296C42.3176 26.126 40.2294 25.5582 38 25.5582C34.3645 25.5582 31.0736 27.0769 28.7159 29.5139L18.4872 20.7083C19.8815 18.9358 20.7273 16.7092 20.7273 14.287C20.7273 8.56149 16.0669 3.88285 10.3636 3.88285C4.66042 3.88285 0 8.56149 0 14.287C0 20.0125 4.66042 24.6912 10.3636 24.6912C12.3964 24.6912 14.2923 24.0898 15.8963 23.0655L26.6648 32.3046C25.6361 34.1676 25.0455 36.2907 25.0455 38.5634C25.0455 44.8091 29.4635 50.0305 35.3281 51.2705L33.7628 64.6279C30.8072 65.0162 28.5 67.5763 28.5 70.6428C28.5 73.9742 31.2271 76.7119 34.5455 76.7119C37.8638 76.7119 40.5909 73.9742 40.5909 70.6428C40.5909 68.264 39.1938 66.1897 37.1903 65.1969L38.7827 51.5415C42.1127 51.3396 45.0962 49.854 47.2841 47.5857L57.7287 56.581C57.2602 57.7069 57 58.9478 57 60.2387C57 65.4854 61.2738 69.7758 66.5 69.7758C71.7262 69.7758 76 65.4854 76 60.2387C76 54.992 71.7262 50.7015 66.5 50.7015C63.8103 50.7015 61.3787 51.8351 59.6449 53.6548L49.3622 44.795C50.3798 42.9396 50.9545 40.8229 50.9545 38.5634C50.9545 34.879 49.4013 31.5601 46.9332 29.1888L56.0554 16.9693C57.14 17.4646 58.3273 17.7551 59.5909 17.7551C64.3402 17.7551 68.2273 13.8528 68.2273 9.08492C68.2273 4.31708 64.3402 0.414795 59.5909 0.414795ZM59.5909 3.88285C62.4732 3.88285 64.7727 6.19135 64.7727 9.08492C64.7727 11.9785 62.4732 14.287 59.5909 14.287C56.7086 14.287 54.4091 11.9785 54.4091 9.08492C54.4091 6.19135 56.7086 3.88285 59.5909 3.88285ZM10.3636 7.3509C14.1999 7.3509 17.2727 10.4358 17.2727 14.287C17.2727 18.1382 14.1999 21.2231 10.3636 21.2231C6.52739 21.2231 3.45455 18.1382 3.45455 14.287C3.45455 10.4358 6.52739 7.3509 10.3636 7.3509ZM38 29.0262C43.2672 29.0262 47.5 33.2756 47.5 38.5634C47.5 43.8512 43.2672 48.1005 38 48.1005C32.7328 48.1005 28.5 43.8512 28.5 38.5634C28.5 33.2756 32.7328 29.0262 38 29.0262ZM66.5 54.1696C69.8593 54.1696 72.5455 56.8663 72.5455 60.2387C72.5455 63.6111 69.8593 66.3078 66.5 66.3078C63.1407 66.3078 60.4545 63.6111 60.4545 60.2387C60.4545 56.8663 63.1407 54.1696 66.5 54.1696ZM34.5455 68.0418C35.9968 68.0418 37.1364 69.1857 37.1364 70.6428C37.1364 72.0998 35.9968 73.2439 34.5455 73.2439C33.0941 73.2439 31.9545 72.0998 31.9545 70.6428C31.9545 69.1857 33.0941 68.0418 34.5455 68.0418Z" fill="#0F2340"/>
</svg>
