<svg width="67" height="71" viewBox="0 0 67 71" fill="none" xmlns="http://www.w3.org/2000/svg">
<path d="M58.8994 0.406982C50.4203 0.406982 42.0169 0.406982 33.5379 0.406982C25.0588 0.406982 16.504 0.406982 8.02486 0.406982C3.48249 0.406982 0 3.78914 0 8.22352C0 22.2031 0 36.1075 0 50.0871C0 50.9138 0.151412 51.7406 0.378531 52.4922C1.36271 55.7992 4.31525 57.9788 7.79774 57.9788C9.7661 57.9788 11.7345 57.9788 13.7028 57.9788C14.7627 60.3087 16.2768 62.4883 18.1695 64.3673C22.2576 68.4259 27.7085 70.6807 33.5379 70.6807C39.3672 70.6807 44.8181 68.4259 48.9062 64.3673C50.7989 62.4883 52.313 60.3087 53.3729 57.9788C55.1898 57.9788 57.0068 57.9788 58.8237 57.9788C60.1107 57.9788 61.3977 57.8285 62.5333 57.2272C65.4859 55.724 67 53.3189 67 50.0119C67 36.1827 67 22.2783 67 8.449C67 3.78914 63.6689 0.406982 58.8994 0.406982ZM58.1424 4.46557C59.5808 4.46557 60.7164 5.59296 60.7164 7.02098C60.7164 8.449 59.5808 9.57638 58.1424 9.57638C56.704 9.57638 55.5684 8.449 55.5684 7.02098C55.5684 5.59296 56.704 4.46557 58.1424 4.46557ZM49.209 4.46557C50.6475 4.46557 51.7831 5.59296 51.7831 7.02098C51.7831 8.449 50.6475 9.57638 49.209 9.57638C47.7706 9.57638 46.635 8.449 46.635 7.02098C46.635 5.59296 47.8463 4.46557 49.209 4.46557ZM40.3514 4.46557C41.7898 4.46557 42.9254 5.59296 42.9254 7.02098C42.9254 8.449 41.7898 9.57638 40.3514 9.57638C38.913 9.57638 37.7774 8.449 37.7774 7.02098C37.7774 5.59296 38.913 4.46557 40.3514 4.46557ZM16.1254 49.1852C16.1254 47.682 16.3525 46.1037 16.7311 44.6756H23.0904C22.8633 46.254 22.7876 47.8323 22.7876 49.4107C22.7876 50.8387 22.8633 52.2667 23.0147 53.6947C20.8949 53.6947 18.7751 53.6947 16.7311 53.6947C16.3525 52.1915 16.1254 50.6884 16.1254 49.1852ZM27.1028 49.4107C27.1028 47.8323 27.2542 46.254 27.4814 44.6756H39.5943C39.8215 46.1037 39.8972 47.5317 39.8972 48.9597C39.8972 50.5381 39.7458 52.1164 39.5186 53.6947C35.4305 53.6947 31.4181 53.6947 27.3299 53.6947C27.1785 52.2667 27.1028 50.7635 27.1028 49.4107ZM28.3898 40.3164C29.2983 37.3101 30.5853 34.5292 32.3266 31.8986C33.1593 31.8235 33.9921 31.8235 34.8249 31.8986C36.4904 34.5292 37.7774 37.3101 38.6102 40.3164H28.3898ZM40.6542 33.4018C43.9096 34.8298 46.7107 37.3101 48.5277 40.3916H43.1525C42.5469 37.9113 41.7141 35.5814 40.6542 33.4018ZM43.9096 44.6005H50.3446C50.7232 46.1037 50.9503 47.6068 50.9503 49.11C50.9503 50.6132 50.7232 52.1164 50.3446 53.6196C48.2249 53.6196 46.0294 53.6196 43.9096 53.6196C44.1367 52.0412 44.2124 50.4629 44.2124 48.8845C44.2124 47.4565 44.1367 46.0285 43.9096 44.6005ZM23.9232 40.3164H18.548C20.4407 37.2349 23.2418 34.7547 26.5729 33.3266C25.4373 35.5814 24.5288 37.9113 23.9232 40.3164ZM18.6237 57.9788C18.7751 57.9788 19.0023 57.9788 19.1537 57.9788C20.7435 57.9788 22.2576 57.9788 23.8475 57.9788C24.4531 60.3839 25.2859 62.6387 26.3458 64.8183C23.0904 63.3902 20.365 60.9852 18.6237 57.9788ZM32.0994 66.3966C30.4339 63.766 29.1469 60.9852 28.3141 58.054C31.7209 58.054 35.1277 58.054 38.6102 58.054C37.7017 61.0603 36.4147 63.8412 34.6734 66.4718C33.6893 66.4718 32.9322 66.4718 32.0994 66.3966ZM40.3514 65.0437C41.487 62.789 42.3955 60.459 43.0011 57.9788C44.8181 57.9788 46.635 57.9788 48.452 57.9788C46.5593 61.1355 43.7582 63.6157 40.3514 65.0437ZM62.609 14.4617C62.609 26.3368 62.609 38.212 62.609 50.0871C62.609 52.2667 61.1706 53.6947 58.9751 53.6947C57.6124 53.6947 56.174 53.6947 54.8113 53.6947C55.1141 52.2667 55.2655 50.7635 55.2655 49.1852C55.2655 43.3979 52.9944 37.9865 48.9062 33.9279C44.8181 29.8693 39.3672 27.6145 33.5379 27.6145C27.7085 27.6145 22.2576 29.8693 18.1695 33.9279C14.0814 37.9865 11.8102 43.3979 11.8102 49.1852C11.8102 50.6884 11.9616 52.1915 12.2644 53.6947C10.9017 53.6947 9.53898 53.6947 8.10056 53.6947C5.82938 53.6947 4.46667 52.3419 4.46667 50.0871C4.46667 38.212 4.46667 26.3368 4.46667 14.3866C4.46667 14.1611 4.46667 14.0108 4.46667 13.7101C23.8475 13.7101 43.1525 13.7101 62.5333 13.7101C62.609 13.9356 62.609 14.2362 62.609 14.4617Z" fill="#0F2340"/>
</svg>
