<svg width="65" height="72" viewBox="0 0 65 72" fill="none" xmlns="http://www.w3.org/2000/svg">
<path d="M17.7099 2.53631C27.4906 2.53631 35.4198 10.5062 35.4198 20.3364C35.4198 30.1674 27.4906 38.1373 17.7099 38.1373C7.93001 38.1373 0 30.1674 0 20.3364C0 10.5053 7.92912 2.53631 17.7099 2.53631ZM38.8257 52.2866C36.8423 50.9355 38.8845 47.9066 40.8679 49.2577L45.0999 52.1399L52.2822 42.5942C53.7252 40.674 56.6371 42.8859 55.1949 44.8044L46.9703 55.736L46.9658 55.7324C46.3863 56.5055 45.2984 56.6943 44.4928 56.1449L38.8257 52.2866ZM12.4318 27.1305C11.1357 25.1002 14.2007 23.1183 15.5022 25.1503C16.7128 27.041 20.1998 26.31 20.1998 24.209C20.1998 20.7864 11.5647 23.673 11.5647 16.4637C11.5647 13.842 13.4493 11.716 15.8823 11.0118V10.3756C15.8823 7.95695 19.5375 7.95695 19.5375 10.3756V11.0135C20.9529 11.4252 22.2019 12.3146 22.9879 13.5431C24.2859 15.5689 21.22 17.5562 19.9176 15.5233C18.7069 13.6317 15.2208 14.3681 15.2208 16.4637C15.2208 18.0305 16.2704 18.1495 18.0882 18.5423C20.9716 19.166 23.855 19.7896 23.855 24.209C23.855 26.846 21.9687 28.9505 19.5375 29.6592V30.298C19.5375 32.7167 15.8823 32.7167 15.8823 30.298V29.6592C14.4642 29.2467 13.2214 28.3599 12.4318 27.1305ZM19.3639 59.8547C17.9404 57.9247 20.871 55.7432 22.2918 57.6723L26.4633 63.3525C27.1728 64.2446 27.0259 65.3863 26.1295 66.0601L20.1348 70.8624C18.2645 72.3594 15.9918 69.4907 17.8648 67.9919L20.433 65.9348C9.45138 63.7426 1.34066 54.0127 1.34066 42.5298C1.34066 40.1112 4.99587 40.1112 4.99587 42.5298C4.99587 52.2589 11.879 60.5008 21.1879 62.3387L19.3639 59.8547ZM46.7931 31.3646C56.5739 31.3646 64.503 39.3336 64.503 49.1647C64.503 58.9957 56.5739 66.9656 46.7931 66.9656C37.0124 66.9656 29.0832 58.9957 29.0832 49.1647C29.0832 39.3345 37.0124 31.3646 46.7931 31.3646ZM46.7931 35.0386C39.0314 35.0386 32.7393 41.363 32.7393 49.1647C32.7393 56.9672 39.0314 63.2916 46.7931 63.2916C54.5549 63.2916 60.8469 56.9672 60.8469 49.1647C60.8469 41.363 54.5549 35.0386 46.7931 35.0386ZM45.1391 11.835C46.5625 13.765 43.632 15.9465 42.2112 14.0174L38.0397 8.33723C37.3302 7.44513 37.477 6.30338 38.3735 5.6296L44.3682 0.827267C46.2385 -0.669715 48.5112 2.19898 46.6382 3.69775L44.07 5.75487C55.0507 7.94621 63.1623 17.677 63.1623 29.1599C63.1623 31.5785 59.5071 31.5785 59.5071 29.1599C59.5071 19.4308 52.624 11.1889 43.315 9.35103L45.1391 11.835ZM17.7099 6.21032C9.94812 6.21032 3.6561 12.5347 3.6561 20.3364C3.6561 28.1389 9.94812 34.4624 17.7099 34.4624C25.4716 34.4624 31.7637 28.1389 31.7637 20.3364C31.7637 12.5347 25.4716 6.21032 17.7099 6.21032Z" fill="#0F2340"/>
</svg>
