<svg width="91" height="73" viewBox="0 0 91 73" fill="none" xmlns="http://www.w3.org/2000/svg">
<path d="M74.1678 19.2417C72.2074 19.2417 70.3225 19.5871 68.5535 20.2702C65.0587 16.2756 59.5572 15.144 55.0026 16.9105C51.9897 7.7339 43.3747 1.42676 33.6405 1.42676C22.6147 1.42676 13.1912 9.52969 11.4616 20.379C5.45079 22.7608 1.4563 28.6173 1.4563 35.1515C1.4563 43.9321 8.57201 51.0757 17.3185 51.0757H23.9029V53.9745C23.9029 54.4874 24.2714 54.925 24.7755 55.0105L29.3735 55.7874C29.5922 56.4111 29.8415 57.0115 30.1174 57.5818L27.4035 61.4032C27.1065 61.8217 27.1542 62.3941 27.5166 62.7565L33.0826 68.3313C33.445 68.6951 34.0158 68.7423 34.4307 68.442L38.2262 65.7169C38.8005 65.9945 39.4013 66.2448 40.0219 66.465L40.7834 71.0783C40.8665 71.585 41.3039 71.957 41.8154 71.957H49.6839C50.1947 71.957 50.6307 71.5871 50.7159 71.081L51.4904 66.465C52.1 66.2476 52.6968 65.9973 53.2744 65.7169L57.0686 68.442C57.4849 68.7423 58.055 68.6951 58.4167 68.3313L63.9834 62.7565C64.3458 62.3941 64.3935 61.8217 64.0965 61.4032L61.3826 57.5818C61.6578 57.0122 61.9064 56.4124 62.1265 55.7881L66.7374 55.0105C67.2415 54.9257 67.6107 54.4874 67.6107 53.9745V51.0757H74.1679C82.9218 51.0757 90.0437 43.9321 90.0437 35.1515C90.0436 26.3791 82.9218 19.2417 74.1678 19.2417ZM65.5181 53.0855L61.1598 53.8206C60.7716 53.8863 60.4528 54.1646 60.3349 54.5414C60.0386 55.4871 59.6701 56.3727 59.2402 57.1735C59.0509 57.5257 59.0774 57.9558 59.309 58.282L61.8778 61.8982L57.5659 66.2161L53.976 63.638C53.6525 63.4054 53.2253 63.3754 52.8759 63.5648C52.0455 64.0079 51.1614 64.3786 50.2486 64.6671C49.8732 64.7854 49.596 65.1048 49.5306 65.4946L48.799 69.8562H42.7023L41.983 65.4974C41.919 65.1069 41.641 64.7855 41.265 64.6672C40.3284 64.371 39.4401 64.0004 38.624 63.5648C38.2732 63.376 37.8468 63.4055 37.5239 63.638L33.9334 66.2161L29.6221 61.8982L32.1909 58.2821C32.4225 57.9559 32.4491 57.5257 32.2597 57.1735C31.8285 56.37 31.46 55.4844 31.1657 54.5421C31.0479 54.1653 30.7291 53.8863 30.3408 53.8206L25.9955 53.0862C25.9955 52.9215 25.9955 46.7701 25.9955 46.978L30.3408 46.2429C30.7291 46.1772 31.0472 45.8982 31.165 45.5214C31.4579 44.5859 31.8271 43.6942 32.2624 42.8715C32.4491 42.5193 32.4205 42.0919 32.1895 41.7677L29.6235 38.1645L33.9334 33.8481L37.5246 36.4255C37.8509 36.6614 38.2841 36.6874 38.6349 36.4925C39.4469 36.0467 40.327 35.6794 41.2514 35.4011C41.6342 35.2862 41.9183 34.9621 41.983 34.5661L42.703 30.1936H48.7983L49.5306 34.5689C49.5966 34.9634 49.88 35.2862 50.2622 35.4011C51.1647 35.6733 52.0407 36.0405 52.865 36.4932C53.2171 36.6861 53.649 36.6614 53.976 36.4255L57.5659 33.8481L61.8764 38.1645L59.3104 41.7677C59.0795 42.0919 59.0508 42.5193 59.2375 42.8715C59.6707 43.6907 60.0406 44.5832 60.3349 45.5221C60.4527 45.8989 60.7715 46.1772 61.1591 46.2429L65.5181 46.978C65.5181 47.1181 65.5181 53.2934 65.5181 53.0855ZM74.1678 48.9748H67.6107V46.0897C67.6107 45.5768 67.2415 45.1391 66.7381 45.0536L62.1264 44.2754C61.9071 43.6525 61.6578 43.0493 61.3805 42.4721L64.0951 38.661C64.3934 38.2432 64.3458 37.6694 63.9834 37.3063L58.4167 31.7322C58.0536 31.3705 57.4848 31.3233 57.0686 31.6221L53.2798 34.3425C52.7001 34.056 52.1007 33.805 51.489 33.5923L50.7158 28.9695C50.6314 28.4634 50.1947 28.0928 49.6838 28.0928H41.8154C41.3031 28.0928 40.8665 28.4648 40.7834 28.9722L40.0225 33.5916C39.4006 33.807 38.7984 34.058 38.2201 34.3432L34.4299 31.6221C34.0165 31.3233 33.4449 31.3705 33.0825 31.7329L27.5165 37.307C27.1541 37.6701 27.1065 38.2432 27.4048 38.661L30.1194 42.4721C29.8414 43.0507 29.5921 43.6538 29.3735 44.2761L24.7754 45.0537C24.2713 45.1391 23.9028 45.5768 23.9028 46.0897V48.9749H17.3184C9.7259 48.9749 3.54887 42.7737 3.54887 35.1515C3.54887 29.2943 7.24773 24.0649 12.7524 22.1378C13.1257 22.0072 13.3941 21.6763 13.4452 21.283C14.7667 11.1607 23.4491 3.52756 33.6404 3.52756C42.8412 3.52756 50.9392 9.73897 53.3329 18.6331C53.4153 18.9395 53.632 19.1925 53.9221 19.3204C54.211 19.4483 54.5434 19.436 54.8247 19.2917C58.8023 17.2194 64.2548 18.0647 67.4097 22.1789C67.7033 22.5625 68.2224 22.6965 68.6651 22.4975C70.3756 21.731 72.2271 21.3425 74.1678 21.3425C81.7678 21.3425 87.951 27.5375 87.951 35.1515C87.951 42.7737 81.7679 48.9748 74.1678 48.9748Z" fill="#0F2340" stroke="#0F2340"/>
</svg>
